<svg id="Layer_7" data-name="Layer 7" xmlns="http://www.w3.org/2000/svg" viewBox="0 0 957 502"><defs><style>.cls-1{fill:#d2d5da;}</style></defs><title>map</title><circle class="cls-1" cx="250.7" cy="401.8" r="1.9"/><circle class="cls-1" cx="256.8" cy="407.45" r="1.9"/><circle class="cls-1" cx="281.4" cy="412.9" r="1.9"/><circle class="cls-1" cx="275.3" cy="412.9" r="1.9"/><circle class="cls-1" cx="250.7" cy="429.7" r="1.9"/><circle class="cls-1" cx="256.8" cy="440.8" r="1.9"/><circle class="cls-1" cx="269.1" cy="452" r="1.9"/><circle class="cls-1" cx="238.3" cy="262.4" r="1.9"/><circle class="cls-1" cx="262.9" cy="284.65" r="1.9"/><circle class="cls-1" cx="244.4" cy="284.65" r="1.9"/><circle class="cls-1" cx="226" cy="284.65" r="1.9"/><circle class="cls-1" cx="238.3" cy="307" r="1.9"/><circle class="cls-1" cx="219.8" cy="323.7" r="1.9"/><circle class="cls-1" cx="213.6" cy="323.7" r="1.9"/><circle class="cls-1" cx="312.3" cy="334.9" r="1.9"/><circle class="cls-1" cx="232.2" cy="334.9" r="1.9"/><circle class="cls-1" cx="318.5" cy="351.6" r="1.9"/><circle class="cls-1" cx="312.3" cy="357.2" r="1.9"/><circle class="cls-1" cx="275.3" cy="117.4" r="1.9"/><circle class="cls-1" cx="133.5" cy="139.7" r="1.9"/><circle class="cls-1" cx="226" cy="167.6" r="1.9"/><circle class="cls-1" cx="182.8" cy="167.6" r="1.9"/><circle class="cls-1" cx="164.3" cy="173.1" r="1.9"/><circle class="cls-1" cx="207.5" cy="189.9" r="1.9"/><circle class="cls-1" cx="164.3" cy="189.9" r="1.9"/><circle class="cls-1" cx="152" cy="228.9" r="1.9"/><circle class="cls-1" cx="256.8" cy="44.9" r="1.9"/><circle class="cls-1" cx="195.2" cy="61.6" r="1.9"/><circle class="cls-1" cx="176.7" cy="67.2" r="1.9"/><circle class="cls-1" cx="121.2" cy="83.9" r="1.9"/><circle class="cls-1" cx="263" cy="95.1" r="1.9"/><circle class="cls-1" cx="269.1" cy="106.2" r="1.9"/><circle class="cls-1" cx="497.2" cy="373.9" r="1.9"/><circle class="cls-1" cx="484.9" cy="379.5" r="1.9"/><circle class="cls-1" cx="552.7" cy="245.6" r="1.9"/><circle class="cls-1" cx="435.5" cy="245.6" r="1.9"/><circle class="cls-1" cx="423.2" cy="245.6" r="1.9"/><circle class="cls-1" cx="583.5" cy="251.2" r="1.9"/><circle class="cls-1" cx="466.4" cy="251.2" r="1.9"/><circle class="cls-1" cx="429.4" cy="251.2" r="1.9"/><circle class="cls-1" cx="460.2" cy="256.8" r="1.9"/><circle class="cls-1" cx="441.7" cy="256.8" r="1.9"/><circle class="cls-1" cx="497.2" cy="267.9" r="1.9"/><circle class="cls-1" cx="447.9" cy="267.9" r="1.9"/><circle class="cls-1" cx="528" cy="273.5" r="1.9"/><circle class="cls-1" cx="571.2" cy="279.1" r="1.9"/><circle class="cls-1" cx="515.7" cy="279.1" r="1.9"/><circle class="cls-1" cx="497.2" cy="279.1" r="1.9"/><circle class="cls-1" cx="565" cy="284.65" r="1.9"/><circle class="cls-1" cx="534.2" cy="284.65" r="1.9"/><circle class="cls-1" cx="528" cy="284.65" r="1.9"/><circle class="cls-1" cx="484.9" cy="284.65" r="1.9"/><circle class="cls-1" cx="558.9" cy="290.2" r="1.9"/><circle class="cls-1" cx="472.6" cy="290.2" r="1.9"/><circle class="cls-1" cx="497.2" cy="295.8" r="1.9"/><circle class="cls-1" cx="484.9" cy="295.8" r="1.9"/><circle class="cls-1" cx="546.55" cy="301.4" r="1.9"/><circle class="cls-1" cx="503.3" cy="312.6" r="1.9"/><circle class="cls-1" cx="552.7" cy="329.3" r="1.9"/><circle class="cls-1" cx="484.9" cy="329.3" r="1.9"/><circle class="cls-1" cx="540.3" cy="340.4" r="1.9"/><circle class="cls-1" cx="540.4" cy="362.7" r="1.9"/><circle class="cls-1" cx="478.7" cy="362.7" r="1.9"/><circle class="cls-1" cx="503.4" cy="368.3" r="1.9"/><circle class="cls-1" cx="620.5" cy="117.4" r="1.9"/><circle class="cls-1" cx="571.2" cy="117.4" r="1.9"/><circle class="cls-1" cx="534.2" cy="117.4" r="1.9"/><circle class="cls-1" cx="614.3" cy="123" r="1.9"/><circle class="cls-1" cx="583.5" cy="123" r="1.9"/><circle class="cls-1" cx="466.4" cy="123" r="1.9"/><circle class="cls-1" cx="608.1" cy="128.5" r="1.9"/><circle class="cls-1" cx="472.6" cy="128.5" r="1.9"/><circle class="cls-1" cx="552.7" cy="134.1" r="1.9"/><circle class="cls-1" cx="515.7" cy="134.1" r="1.9"/><circle class="cls-1" cx="509.5" cy="134.1" r="1.9"/><circle class="cls-1" cx="472.5" cy="134.1" r="1.9"/><circle class="cls-1" cx="435.5" cy="134.1" r="1.9"/><circle class="cls-1" cx="645.1" cy="139.7" r="1.9"/><circle class="cls-1" cx="460.2" cy="139.7" r="1.9"/><circle class="cls-1" cx="589.7" cy="145.3" r="1.9"/><circle class="cls-1" cx="435.6" cy="145.3" r="1.9"/><circle class="cls-1" cx="645.1" cy="150.8" r="1.9"/><circle class="cls-1" cx="577.4" cy="150.8" r="1.9"/><circle class="cls-1" cx="441.7" cy="150.8" r="1.9"/><circle class="cls-1" cx="589.7" cy="156.4" r="1.9"/><circle class="cls-1" cx="558.9" cy="156.4" r="1.9"/><circle class="cls-1" cx="552.7" cy="162" r="1.9"/><circle class="cls-1" cx="534.2" cy="162" r="1.9"/><circle class="cls-1" cx="503.4" cy="162" r="1.9"/><circle class="cls-1" cx="429.4" cy="162" r="1.9"/><circle class="cls-1" cx="515.7" cy="167.6" r="1.9"/><circle class="cls-1" cx="626.65" cy="173.1" r="1.9"/><circle class="cls-1" cx="608.1" cy="173.1" r="1.9"/><circle class="cls-1" cx="595.8" cy="173.1" r="1.9"/><circle class="cls-1" cx="460.2" cy="178.7" r="1.9"/><circle class="cls-1" cx="454.1" cy="178.7" r="1.9"/><circle class="cls-1" cx="595.8" cy="184.3" r="1.9"/><circle class="cls-1" cx="558.9" cy="184.3" r="1.9"/><circle class="cls-1" cx="620.5" cy="189.9" r="1.9"/><circle class="cls-1" cx="552.7" cy="189.9" r="1.9"/><circle class="cls-1" cx="540.3" cy="189.9" r="1.9"/><circle class="cls-1" cx="521.8" cy="189.9" r="1.9"/><circle class="cls-1" cx="503.4" cy="189.9" r="1.9"/><circle class="cls-1" cx="466.4" cy="189.9" r="1.9"/><circle class="cls-1" cx="417.1" cy="195.4" r="1.9"/><circle class="cls-1" cx="626.65" cy="201" r="1.9"/><circle class="cls-1" cx="602" cy="201" r="1.9"/><circle class="cls-1" cx="521.8" cy="201" r="1.9"/><circle class="cls-1" cx="515.7" cy="201" r="1.9"/><circle class="cls-1" cx="454.1" cy="201" r="1.9"/><circle class="cls-1" cx="491" cy="206.6" r="1.9"/><circle class="cls-1" cx="602" cy="212.2" r="1.9"/><circle class="cls-1" cx="577.4" cy="217.8" r="1.9"/><circle class="cls-1" cx="571.2" cy="217.8" r="1.9"/><circle class="cls-1" cx="565" cy="217.8" r="1.9"/><circle class="cls-1" cx="521.8" cy="217.8" r="1.9"/><circle class="cls-1" cx="503.4" cy="217.8" r="1.9"/><circle class="cls-1" cx="491" cy="217.8" r="1.9"/><circle class="cls-1" cx="454.1" cy="217.8" r="1.9"/><circle class="cls-1" cx="423.3" cy="217.8" r="1.9"/><circle class="cls-1" cx="509.5" cy="223.3" r="1.9"/><circle class="cls-1" cx="503.4" cy="223.3" r="1.9"/><circle class="cls-1" cx="484.9" cy="228.9" r="1.9"/><circle class="cls-1" cx="503.4" cy="234.5" r="1.9"/><circle class="cls-1" cx="417.1" cy="234.5" r="1.9"/><circle class="cls-1" cx="398.6" cy="234.5" r="1.9"/><circle class="cls-1" cx="552.7" cy="240.1" r="1.9"/><circle class="cls-1" cx="454.1" cy="240.1" r="1.9"/><circle class="cls-1" cx="361.6" cy="61.6" r="1.9"/><circle class="cls-1" cx="361.6" cy="67.2" r="1.9"/><circle class="cls-1" cx="577.3" cy="72.8" r="1.9"/><circle class="cls-1" cx="589.7" cy="78.3" r="1.9"/><circle class="cls-1" cx="484.9" cy="78.3" r="1.9"/><circle class="cls-1" cx="571.2" cy="83.9" r="1.9"/><circle class="cls-1" cx="540.3" cy="89.5" r="1.9"/><circle class="cls-1" cx="509.5" cy="89.5" r="1.9"/><circle class="cls-1" cx="626.65" cy="95.1" r="1.9"/><circle class="cls-1" cx="571.2" cy="95.1" r="1.9"/><circle class="cls-1" cx="503.4" cy="95.1" r="1.9"/><circle class="cls-1" cx="534.2" cy="100.6" r="1.9"/><circle class="cls-1" cx="626.65" cy="106.2" r="1.9"/><circle class="cls-1" cx="614.3" cy="106.2" r="1.9"/><circle class="cls-1" cx="552.7" cy="106.2" r="1.9"/><circle class="cls-1" cx="651.3" cy="111.8" r="1.9"/><circle class="cls-1" cx="571.2" cy="111.8" r="1.9"/><circle class="cls-1" cx="521.8" cy="111.9" r="1.9"/><circle class="cls-1" cx="515.7" cy="111.8" r="1.9"/><circle class="cls-1" cx="836.2" cy="373.9" r="1.9"/><circle class="cls-1" cx="830.1" cy="379.5" r="1.9"/><circle class="cls-1" cx="805.4" cy="379.5" r="1.9"/><circle class="cls-1" cx="860.9" cy="385.1" r="1.9"/><circle class="cls-1" cx="842.4" cy="385.1" r="1.9"/><circle class="cls-1" cx="787" cy="385.1" r="1.9"/><circle class="cls-1" cx="768.5" cy="385.1" r="1.9"/><circle class="cls-1" cx="811.65" cy="390.6" r="1.9"/><circle class="cls-1" cx="887.7" cy="435.2" r="1.9"/><circle class="cls-1" cx="749.9" cy="245.6" r="1.9"/><circle class="cls-1" cx="737.6" cy="245.6" r="1.9"/><circle class="cls-1" cx="657.5" cy="245.6" r="1.9"/><circle class="cls-1" cx="799.2" cy="251.2" r="1.9"/><circle class="cls-1" cx="799.2" cy="262.4" r="1.9"/><circle class="cls-1" cx="799.2" cy="290.2" r="1.9"/><circle class="cls-1" cx="756.1" cy="290.2" r="1.9"/><circle class="cls-1" cx="823.9" cy="295.8" r="1.9"/><circle class="cls-1" cx="842.45" cy="307" r="1.9"/><circle class="cls-1" cx="867.1" cy="323.7" r="1.9"/><circle class="cls-1" cx="823.9" cy="346.05" r="1.9"/><circle class="cls-1" cx="787" cy="117.4" r="1.9"/><circle class="cls-1" cx="750" cy="117.4" r="1.9"/><circle class="cls-1" cx="713" cy="117.4" r="1.9"/><circle class="cls-1" cx="793.1" cy="123" r="1.9"/><circle class="cls-1" cx="768.5" cy="123" r="1.9"/><circle class="cls-1" cx="756.1" cy="123" r="1.9"/><circle class="cls-1" cx="737.6" cy="123" r="1.9"/><circle class="cls-1" cx="805.4" cy="128.5" r="1.9"/><circle class="cls-1" cx="706.8" cy="128.5" r="1.9"/><circle class="cls-1" cx="700.7" cy="128.5" r="1.9"/><circle class="cls-1" cx="768.4" cy="134.1" r="1.9"/><circle class="cls-1" cx="676" cy="134.1" r="1.9"/><circle class="cls-1" cx="774.6" cy="145.3" r="1.9"/><circle class="cls-1" cx="657.55" cy="145.3" r="1.9"/><circle class="cls-1" cx="731.5" cy="150.8" r="1.9"/><circle class="cls-1" cx="682.1" cy="150.8" r="1.9"/><circle class="cls-1" cx="762.3" cy="156.4" r="1.9"/><circle class="cls-1" cx="719.1" cy="156.4" r="1.9"/><circle class="cls-1" cx="731.5" cy="162" r="1.9"/><circle class="cls-1" cx="749.9" cy="167.6" r="1.9"/><circle class="cls-1" cx="731.4" cy="167.6" r="1.9"/><circle class="cls-1" cx="725.35" cy="167.6" r="1.9"/><circle class="cls-1" cx="700.6" cy="167.6" r="1.9"/><circle class="cls-1" cx="793.1" cy="173.1" r="1.9"/><circle class="cls-1" cx="713" cy="173.1" r="1.9"/><circle class="cls-1" cx="787" cy="178.7" r="1.9"/><circle class="cls-1" cx="737.6" cy="178.7" r="1.9"/><circle class="cls-1" cx="731.5" cy="178.7" r="1.9"/><circle class="cls-1" cx="657.55" cy="184.3" r="1.9"/><circle class="cls-1" cx="700.7" cy="189.9" r="1.9"/><circle class="cls-1" cx="688.3" cy="189.9" r="1.9"/><circle class="cls-1" cx="669.8" cy="195.4" r="1.9"/><circle class="cls-1" cx="756.1" cy="206.6" r="1.9"/><circle class="cls-1" cx="682.1" cy="206.6" r="1.9"/><circle class="cls-1" cx="706.8" cy="217.8" r="1.9"/><circle class="cls-1" cx="669.8" cy="223.3" r="1.9"/><circle class="cls-1" cx="787" cy="234.3" r="1.9"/><circle class="cls-1" cx="768.5" cy="61.6" r="1.9"/><circle class="cls-1" cx="756.1" cy="67.2" r="1.9"/><circle class="cls-1" cx="719.1" cy="67.2" r="1.9"/><circle class="cls-1" cx="842.45" cy="72.8" r="1.9"/><circle class="cls-1" cx="786.9" cy="72.8" r="1.9"/><circle class="cls-1" cx="793.1" cy="78.3" r="1.9"/><circle class="cls-1" cx="787" cy="83.9" r="1.9"/><circle class="cls-1" cx="762.3" cy="83.9" r="1.9"/><circle class="cls-1" cx="694.4" cy="83.9" r="1.9"/><circle class="cls-1" cx="682.1" cy="83.9" r="1.9"/><circle class="cls-1" cx="823.9" cy="95.1" r="1.9"/><circle class="cls-1" cx="799.3" cy="95.1" r="1.9"/><circle class="cls-1" cx="706.8" cy="95.1" r="1.9"/><circle class="cls-1" cx="750" cy="100.6" r="1.9"/><circle class="cls-1" cx="706.8" cy="100.6" r="1.9"/><circle class="cls-1" cx="768.5" cy="106.2" r="1.9"/><circle class="cls-1" cx="657.55" cy="106.2" r="1.9"/><circle class="cls-1" cx="731.5" cy="111.8" r="1.9"/><circle class="cls-1" cx="682.1" cy="111.8" r="1.9"/></svg>