<svg id="Layer_7" data-name="Layer 7" xmlns="http://www.w3.org/2000/svg" viewBox="0 0 957 502"><defs><style>.cls-1{fill:#f4f5f5;}</style></defs><title>map</title><circle class="cls-1" cx="263" cy="373.9" r="1.9"/><circle class="cls-1" cx="244.5" cy="373.9" r="1.9"/><circle class="cls-1" cx="244.4" cy="295.8" r="1.9"/><circle class="cls-1" cx="330.7" cy="318.1" r="1.9"/><circle class="cls-1" cx="256.8" cy="318.1" r="1.9"/><circle class="cls-1" cx="226" cy="334.9" r="1.9"/><circle class="cls-1" cx="133.5" cy="117.4" r="1.9"/><circle class="cls-1" cx="250.6" cy="123" r="1.9"/><circle class="cls-1" cx="145.9" cy="123" r="1.9"/><circle class="cls-1" cx="182.8" cy="145.3" r="1.9"/><circle class="cls-1" cx="164.3" cy="100.6" r="1.9"/><circle class="cls-1" cx="509.6" cy="373.9" r="1.9"/><circle class="cls-1" cx="491" cy="385.1" r="1.9"/><circle class="cls-1" cx="534.2" cy="245.6" r="1.9"/><circle class="cls-1" cx="398.6" cy="245.6" r="1.9"/><circle class="cls-1" cx="454.1" cy="251.2" r="1.9"/><circle class="cls-1" cx="577.3" cy="262.4" r="1.9"/><circle class="cls-1" cx="460.2" cy="262.4" r="1.9"/><circle class="cls-1" cx="435.6" cy="267.9" r="1.9"/><circle class="cls-1" cx="571.2" cy="273.5" r="1.9"/><circle class="cls-1" cx="423.3" cy="273.5" r="1.9"/><circle class="cls-1" cx="491" cy="284.65" r="1.9"/><circle class="cls-1" cx="534.2" cy="301.4" r="1.9"/><circle class="cls-1" cx="534.2" cy="329.3" r="1.9"/><circle class="cls-1" cx="577.4" cy="351.6" r="1.9"/><circle class="cls-1" cx="589.7" cy="117.4" r="1.9"/><circle class="cls-1" cx="583.5" cy="117.4" r="1.9"/><circle class="cls-1" cx="497.2" cy="117.4" r="1.9"/><circle class="cls-1" cx="558.9" cy="123" r="1.9"/><circle class="cls-1" cx="503.4" cy="128.5" r="1.9"/><circle class="cls-1" cx="497.2" cy="128.5" r="1.9"/><circle class="cls-1" cx="466.4" cy="128.5" r="1.9"/><circle class="cls-1" cx="571.2" cy="134.1" r="1.9"/><circle class="cls-1" cx="503.3" cy="134.1" r="1.9"/><circle class="cls-1" cx="589.6" cy="139.7" r="1.9"/><circle class="cls-1" cx="565" cy="139.7" r="1.9"/><circle class="cls-1" cx="645.1" cy="156.4" r="1.9"/><circle class="cls-1" cx="614.3" cy="167.6" r="1.9"/><circle class="cls-1" cx="620.5" cy="173.1" r="1.9"/><circle class="cls-1" cx="565" cy="178.7" r="1.9"/><circle class="cls-1" cx="454.1" cy="184.3" r="1.9"/><circle class="cls-1" cx="565" cy="189.9" r="1.9"/><circle class="cls-1" cx="632.8" cy="195.4" r="1.9"/><circle class="cls-1" cx="589.7" cy="195.4" r="1.9"/><circle class="cls-1" cx="565" cy="195.4" r="1.9"/><circle class="cls-1" cx="497.2" cy="195.4" r="1.9"/><circle class="cls-1" cx="447.9" cy="201" r="1.9"/><circle class="cls-1" cx="429.4" cy="212.2" r="1.9"/><circle class="cls-1" cx="417.1" cy="212.2" r="1.9"/><circle class="cls-1" cx="429.4" cy="217.8" r="1.9"/><circle class="cls-1" cx="651.3" cy="228.9" r="1.9"/><circle class="cls-1" cx="595.8" cy="228.9" r="1.9"/><circle class="cls-1" cx="478.7" cy="228.9" r="1.9"/><circle class="cls-1" cx="577.4" cy="234.5" r="1.9"/><circle class="cls-1" cx="484.9" cy="234.5" r="1.9"/><circle class="cls-1" cx="478.7" cy="234.5" r="1.9"/><circle class="cls-1" cx="466.4" cy="234.5" r="1.9"/><circle class="cls-1" cx="392.4" cy="67.2" r="1.9"/><circle class="cls-1" cx="651.3" cy="78.3" r="1.9"/><circle class="cls-1" cx="583.5" cy="83.9" r="1.9"/><circle class="cls-1" cx="558.9" cy="100.6" r="1.9"/><circle class="cls-1" cx="515.7" cy="106.2" r="1.9"/><circle class="cls-1" cx="799.2" cy="379.5" r="1.9"/><circle class="cls-1" cx="780.8" cy="385.1" r="1.9"/><circle class="cls-1" cx="842.45" cy="412.9" r="1.9"/><circle class="cls-1" cx="830.1" cy="429.7" r="1.9"/><circle class="cls-1" cx="786.9" cy="245.6" r="1.9"/><circle class="cls-1" cx="743.8" cy="245.6" r="1.9"/><circle class="cls-1" cx="799.2" cy="256.8" r="1.9"/><circle class="cls-1" cx="731.5" cy="273.5" r="1.9"/><circle class="cls-1" cx="762.3" cy="290.2" r="1.9"/><circle class="cls-1" cx="817.8" cy="346" r="1.9"/><circle class="cls-1" cx="854.7" cy="357.2" r="1.9"/><circle class="cls-1" cx="830.1" cy="117.4" r="1.9"/><circle class="cls-1" cx="663.7" cy="117.4" r="1.9"/><circle class="cls-1" cx="750" cy="123" r="1.9"/><circle class="cls-1" cx="731.5" cy="123" r="1.9"/><circle class="cls-1" cx="682.6" cy="127.6" r="1.9"/><circle class="cls-1" cx="780.8" cy="134.1" r="1.9"/><circle class="cls-1" cx="669.8" cy="145.3" r="1.9"/><circle class="cls-1" cx="780.8" cy="162" r="1.9"/><circle class="cls-1" cx="750" cy="162" r="1.9"/><circle class="cls-1" cx="682.1" cy="162" r="1.9"/><circle class="cls-1" cx="793.1" cy="167.6" r="1.9"/><circle class="cls-1" cx="780.8" cy="167.6" r="1.9"/><circle class="cls-1" cx="731.5" cy="184.3" r="1.9"/><circle class="cls-1" cx="713" cy="195.4" r="1.9"/><circle class="cls-1" cx="657.55" cy="195.4" r="1.9"/><circle class="cls-1" cx="731.5" cy="206.6" r="1.9"/><circle class="cls-1" cx="688.3" cy="212.2" r="1.9"/><circle class="cls-1" cx="682.1" cy="212.2" r="1.9"/><circle class="cls-1" cx="682.1" cy="223.3" r="1.9"/><circle class="cls-1" cx="737.6" cy="228.9" r="1.9"/><circle class="cls-1" cx="731.5" cy="240.1" r="1.9"/><circle class="cls-1" cx="663.7" cy="240.1" r="1.9"/><circle class="cls-1" cx="657.55" cy="50.5" r="1.9"/><circle class="cls-1" cx="805.4" cy="78.3" r="1.9"/><circle class="cls-1" cx="787" cy="78.3" r="1.9"/><circle class="cls-1" cx="774.6" cy="78.3" r="1.9"/><circle class="cls-1" cx="725.35" cy="78.3" r="1.9"/><circle class="cls-1" cx="706.8" cy="78.3" r="1.9"/><circle class="cls-1" cx="750" cy="83.9" r="1.9"/><circle class="cls-1" cx="768.5" cy="95.1" r="1.9"/><circle class="cls-1" cx="762.3" cy="95.1" r="1.9"/><circle class="cls-1" cx="676" cy="95.1" r="1.9"/><circle class="cls-1" cx="756.1" cy="100.6" r="1.9"/><circle class="cls-1" cx="725.35" cy="100.6" r="1.9"/><circle class="cls-1" cx="743.8" cy="106.2" r="1.9"/><circle class="cls-1" cx="700.7" cy="106.2" r="1.9"/></svg>