<?xml version="1.0" standalone="no"?>
<!DOCTYPE svg PUBLIC "-//W3C//DTD SVG 1.1//EN" "http://www.w3.org/Graphics/SVG/1.1/DTD/svg11.dtd" >
<!--
2016-10-12: Created with FontForge (http://fontforge.org)
-->
<svg xmlns="http://www.w3.org/2000/svg" xmlns:xlink="http://www.w3.org/1999/xlink" version="1.1">
<metadata>
Created by FontForge 20150828 at Wed Oct 12 14:13:38 2016
 By Shannon Mosley
Copyright (c) 2016, Shannon Mosley
</metadata>
<defs>
<font id="conduent-icon-font" horiz-adv-x="512" >
  <font-face 
    font-family="conduent-icon-font"
    font-weight="400"
    font-stretch="normal"
    units-per-em="512"
    panose-1="2 0 5 3 0 0 0 0 0 0"
    ascent="448"
    descent="-64"
    bbox="-0.25 -64 512.5 448.382"
    underline-thickness="25.6"
    underline-position="-51.2"
    unicode-range="U+0020-F115"
  />
    <missing-glyph />
    <glyph glyph-name="space" unicode=" " horiz-adv-x="200" 
 />
    <glyph glyph-name="uniF104" unicode="&#xf104;" horiz-adv-x="507" 
d="M234 176l-226 226c-11 11 -11 27 0 38s27 11 38 0l226 -226h-38l227 226c11 11 27 11 38 0s11 -27 0 -38l-227 -226l-19 -19z" />
    <glyph glyph-name="uniF10B" unicode="&#xf10b;" 
d="M176 255c0 44 36 80 80 80s80 -36 80 -80s-36 -80 -80 -80s-80 36 -80 80zM94 62c-4 0 -7 1 -10 4c-53 49 -84 118 -84 189s31 140 84 189c6 6 16 6 22 -1s6 -17 -1 -23c-46 -42 -73 -103 -73 -165c0 -63 27 -123 73 -165c7 -6 7 -16 1 -23c-3 -3 -8 -5 -12 -5zM418 62
c-4 0 -9 2 -12 5c-6 7 -6 17 1 23c46 42 73 102 73 165c0 62 -27 123 -73 165c-7 6 -7 16 -1 23s17 7 23 1c53 -49 83 -118 83 -189s-30 -140 -83 -189c-3 -3 -7 -4 -11 -4zM142 127c-4 0 -9 2 -12 5c-32 33 -50 77 -50 123s18 90 50 123c6 6 17 6 23 0s6 -16 0 -22
c-27 -27 -41 -63 -41 -101s14 -74 41 -101c6 -6 6 -16 0 -22c-3 -3 -7 -5 -11 -5zM370 127c-4 0 -8 2 -11 5c-6 6 -6 16 0 22c27 27 41 63 41 101s-14 74 -41 101c-6 6 -6 16 0 22s17 6 23 0c32 -33 50 -77 50 -123s-18 -90 -50 -123c-3 -3 -8 -5 -12 -5z" />
    <glyph glyph-name="uniF10A" unicode="&#xf10a;" 
d="M299 235v128h-86v-128h-128v-86h128v-128h86v128h128v86h-128zM0 448h512v-512h-512v512z" />
    <glyph glyph-name="uniF108" unicode="&#xf108;" horiz-adv-x="266" 
d="M173 -64h-94v234h-79v91h79v67c0 78 48 120 117 120c33 0 62 -3 70 -4v-81h-48c-38 0 -45 -18 -45 -44v-58h90l-12 -91h-78v-234z" />
    <glyph glyph-name="uniF112" unicode="&#xf112;" horiz-adv-x="257" 
d="M0 448h110l147 -256l-147 -256h-110l148 256z" />
    <glyph glyph-name="uniF115" unicode="&#xf115;" horiz-adv-x="157" 
d="M148 448h9v-9l-143 -247l143 -247v-9h-9l-148 256z" />
    <glyph glyph-name="uniF10F" unicode="&#xf10f;" horiz-adv-x="448" 
d="M0 -64v512h448v-512h-448zM32 416v-448h384v272v176h-384zM336 128c9 0 16 -7 16 -16s-7 -16 -16 -16h-224c-9 0 -16 7 -16 16s7 16 16 16h224zM336 48c9 0 16 -7 16 -16s-7 -16 -16 -16h-224c-9 0 -16 7 -16 16s7 16 16 16h224zM336 288c9 0 16 -7 16 -16
s-7 -16 -16 -16h-224c-9 0 -16 7 -16 16s7 16 16 16h224zM336 368c9 0 16 -7 16 -16s-7 -16 -16 -16h-224c-9 0 -16 7 -16 16s7 16 16 16h224zM336 208c9 0 16 -7 16 -16s-7 -16 -16 -16h-224c-9 0 -16 7 -16 16s7 16 16 16h224z" />
    <glyph glyph-name="uniF100" unicode="&#xf100;" 
d="M128 416v-64h-32v64c0 18 14 32 32 32h256c18 0 32 -14 32 -32v-64h-32v64h-256zM160 128v32h128v-32h-128zM160 64v32h192v-32h-192zM160 0v32h192v-32h-192zM448 224v0c18 0 32 14 32 32s-14 32 -32 32s-32 -14 -32 -32s14 -32 32 -32zM128 -32h256v224h-256v-224z
M480 320v0c18 0 32 -14 32 -32v-160c0 -18 -14 -32 -32 -32h-64v-128c0 -18 -14 -32 -32 -32h-256c-18 0 -32 14 -32 32v128h-64c-18 0 -32 14 -32 32v160c0 18 14 32 32 32h448z" />
    <glyph glyph-name="uniF109" unicode="&#xf109;" 
d="M0 419c0 16 13 29 29 29h454c16 0 29 -13 29 -29s-13 -30 -29 -30h-454c-16 0 -29 14 -29 30zM0 302c0 16 13 29 29 29h454c16 0 29 -13 29 -29s-13 -30 -29 -30h-454c-16 0 -29 14 -29 30zM0 185c0 16 13 29 29 29h454c16 0 29 -13 29 -29s-13 -30 -29 -30h-454
c-16 0 -29 14 -29 30z" />
    <glyph glyph-name="uniF102" unicode="&#xf102;" 
d="M480 240v176h-320v-176v-208v-8v-8c0 -18 -6 -35 -16 -48h274v0h13h2h1c26 1 46 22 46 48v224zM128 32v176h-96v-192c0 -26 22 -48 48 -48c6 0 12 1 18 3c18 7 30 25 30 45v16zM128 448h384v-208v-224c0 -44 -36 -80 -80 -80h-1v0h-351c-44 0 -80 36 -80 80v224h128v208z
M432 288c9 0 16 -7 16 -16s-7 -16 -16 -16h-48c-9 0 -16 7 -16 16s7 16 16 16h48zM432 368c9 0 16 -7 16 -16s-7 -16 -16 -16h-48c-9 0 -16 7 -16 16s7 16 16 16h48zM432 208c9 0 16 -7 16 -16s-7 -16 -16 -16h-192c-9 0 -16 7 -16 16s7 16 16 16h192zM432 128
c9 0 16 -7 16 -16s-7 -16 -16 -16h-192c-9 0 -16 7 -16 16s7 16 16 16h192zM432 48c9 0 16 -7 16 -16s-7 -16 -16 -16h-192c-9 0 -16 7 -16 16s7 16 16 16h192zM224 256v112h128v-112h-128z" />
    <glyph glyph-name="uniF10D" unicode="&#xf10d;" horiz-adv-x="472" 
d="M301 387c68 -68 67 -180 -2 -249s-180 -70 -248 -2s-68 180 1 249s181 70 249 2zM98 183c42 -42 111 -41 154 2s44 112 2 154s-111 41 -154 -2s-44 -112 -2 -154zM415 -11l-149 150c-13 13 -13 34 0 47s34 13 47 0l149 -149c13 -13 13 -35 0 -48s-34 -13 -47 0z" />
    <glyph glyph-name="uniF103" unicode="&#xf103;" horiz-adv-x="416" 
d="M0 448h268v-69h148v-443h-268v69h-148v443zM28 420v-388h120v347l60 41h-180zM240 409l-42 -30h42v30zM176 5v-41h212v388h-212v-320v-27z" />
    <glyph glyph-name="uniF107" unicode="&#xf107;" 
d="M448 160v192l-192 -160l-192 160v-192c0 -18 14 -32 32 -32h320c18 0 32 14 32 32zM416 384h-320l160 -128zM448 448v0c35 0 64 -29 64 -64v-256c0 -35 -29 -64 -64 -64h-384c-35 0 -64 29 -64 64v256c0 35 29 64 64 64h384z" />
    <glyph glyph-name="uniF111" unicode="&#xf111;" 
d="M336 288c9 0 16 -7 16 -16s-7 -16 -16 -16h-224c-9 0 -16 7 -16 16s7 16 16 16h224zM336 368c9 0 16 -7 16 -16s-7 -16 -16 -16h-224c-9 0 -16 7 -16 16s7 16 16 16h224zM488 330c6 0 12 -2 17 -7c9 -9 9 -25 0 -34l-249 -249c-1 -1 -2 -2 -3 -2l-34 -11h-3
c-2 0 -3 0 -5 2s-3 5 -2 8l11 34c0 1 1 2 2 3l249 249c5 5 11 7 17 7zM416 -32v187l32 32v-251h-448v512h448v-103l-32 -32v103h-384v-448h384zM311 208l-32 -32h-167c-9 0 -16 7 -16 16s7 16 16 16h199zM231 128l-31 -31l-1 -1h-87c-9 0 -16 7 -16 16s7 16 16 16h119z
M179 48v-1c-4 -11 -3 -22 2 -31h-69c-9 0 -16 7 -16 16s7 16 16 16h67z" />
    <glyph glyph-name="uniF10C" unicode="&#xf10c;" horiz-adv-x="448" 
d="M0 -64v512h448v-512h-448zM32 416v-448h384v272v176h-384zM336 128h-224c-9 0 -16 -7 -16 -16s7 -16 16 -16h224c9 0 16 7 16 16s-7 16 -16 16zM336 48h-224c-9 0 -16 -7 -16 -16s7 -16 16 -16h224c9 0 16 7 16 16s-7 16 -16 16zM224 192c-44 0 -80 36 -80 80
c0 39 28 71 64 78v-94h94c-7 -36 -39 -64 -78 -64zM302 288h-62v62c31 -6 56 -31 62 -62zM224 384c-62 0 -112 -50 -112 -112s50 -112 112 -112s112 50 112 112s-50 112 -112 112z" />
    <glyph glyph-name="uniF10E" unicode="&#xf10e;" horiz-adv-x="504" 
d="M158 38c190 0 295 158 295 295c0 4 -1 9 -1 13c20 15 38 33 52 54c-19 -8 -38 -14 -59 -17c21 13 37 33 45 57c-20 -12 -42 -20 -66 -25c-19 20 -45 33 -75 33c-57 0 -103 -46 -103 -103c0 -8 0 -16 2 -24c-86 4 -162 45 -213 108c-9 -15 -14 -33 -14 -52
c0 -36 18 -67 46 -86c-17 1 -33 5 -47 13v-1c0 -50 36 -93 83 -102c-9 -2 -18 -3 -27 -3c-7 0 -14 0 -20 1c13 -41 52 -70 97 -71c-35 -28 -80 -45 -128 -45c-8 0 -17 1 -25 2c46 -29 100 -47 158 -47z" />
    <glyph glyph-name="uniF105" unicode="&#xf105;" 
d="M192 128h-80c-9 0 -16 -7 -16 -16s7 -16 16 -16h80c9 0 16 7 16 16s-7 16 -16 16zM320 128c62 0 112 50 112 112s-50 112 -112 112c-21 0 -40 -6 -57 -16h49c13 0 24 -11 24 -24s-11 -24 -24 -24h-88h-5c-2 -5 -4 -10 -6 -16h99c13 0 24 -11 24 -24s-11 -24 -24 -24h-103
c1 -5 2 -11 4 -16h99c13 0 24 -11 24 -24s-11 -24 -24 -24h-70c20 -20 48 -32 78 -32zM507 75c6 -6 6 -16 0 -22c-3 -3 -7 -5 -11 -5s-8 2 -11 5l-75 75c-25 -20 -56 -32 -90 -32c-50 0 -94 25 -120 64h-88c-9 0 -16 7 -16 16s7 16 16 16h72c-4 10 -6 21 -7 32h-65
c-9 0 -16 7 -16 16s7 16 16 16h65v1c1 11 3 21 7 31h-72c-9 0 -16 7 -16 16s7 16 16 16h89c1 2 2 3 3 5v0c3 4 6 8 9 11c26 29 64 48 107 48c80 0 144 -64 144 -144c0 -34 -12 -65 -32 -90zM416 93l32 -29v-128h-448v512h448v-88c-10 10 -20 19 -32 27v29h-384v-448h384v125
z" />
    <glyph glyph-name="uniF101" unicode="&#xf101;" 
d="M506 219l-195 -195c-8 -8 -20 -8 -28 0s-8 20 0 28l162 162h-425c-11 0 -20 8 -20 19s9 20 20 20h425l-162 161c-8 8 -8 20 0 28s20 8 28 0l195 -195v0c2 -2 4 -4 5 -6c2 -5 2 -10 0 -15c-1 -2 -3 -4 -5 -6v-1z" />
    <glyph glyph-name="uniF106" unicode="&#xf106;" horiz-adv-x="448" 
d="M432 -32c9 0 16 -7 16 -16s-7 -16 -16 -16h-416c-9 0 -16 7 -16 16s7 16 16 16h416zM213 37l-159 158c-6 6 -6 17 0 23s17 6 23 0l131 -131v345c0 9 7 16 16 16s16 -7 16 -16v-345l131 131c6 6 17 6 23 0s6 -17 0 -23l-159 -158v0c-1 -1 -3 -3 -5 -4c-4 -2 -8 -2 -12 0
c-2 1 -4 2 -5 3v1z" />
    <glyph glyph-name="uniF110" unicode="&#xf110;" 
d="M448 238v18c0 106 -86 192 -192 192s-192 -86 -192 -192v-18c-36 -7 -64 -39 -64 -78s28 -71 64 -78v-34c0 -5 3 -10 7 -13l144 -96c1 -1 2 -2 3 -2v0c2 -1 4 -1 6 -1v0v0h64c9 0 16 7 16 16v16c0 9 -7 16 -16 16h-64c-5 0 -8 -2 -11 -5l-117 78v199c0 88 72 160 160 160
s160 -72 160 -160v-160c0 -9 7 -16 16 -16c44 0 80 36 80 80c0 39 -28 71 -64 78z" />
    <glyph glyph-name="uniF113" unicode="&#xf113;" 
d="M496 48c-9 0 -16 7 -16 16c0 194 -158 352 -352 352c-9 0 -16 7 -16 16s7 16 16 16c212 0 384 -172 384 -384c0 -9 -7 -16 -16 -16zM408 48c-9 0 -16 7 -16 16c0 145 -119 264 -264 264c-9 0 -16 7 -16 16s7 16 16 16c163 0 296 -133 296 -296c0 -9 -7 -16 -16 -16z
M312 48c-9 0 -16 7 -16 16c0 93 -75 168 -168 168c-9 0 -16 7 -16 16s7 16 16 16c110 0 200 -90 200 -200c0 -9 -7 -16 -16 -16zM128 -16c-44 0 -80 36 -80 80s36 80 80 80s80 -36 80 -80s-36 -80 -80 -80zM128 176c-41 0 -76 -22 -96 -55v135c0 9 -7 16 -16 16
s-16 -7 -16 -16v-288c0 -9 7 -16 16 -16s16 7 16 16v39c20 -33 55 -55 96 -55c62 0 112 50 112 112s-50 112 -112 112z" />
  </font>
</defs>
</svg>
